<svg width="112" height="112" viewBox="0 0 112 112" fill="none" xmlns="http://www.w3.org/2000/svg">
<path d="M100.03 87.9983C97.2778 85.3627 94.5992 82.651 91.9975 79.8665C89.8115 77.6456 88.4953 76.0298 88.4953 76.0298L72.042 68.1742C78.6301 60.7048 82.2657 51.0882 82.2665 41.1289C82.2665 18.4551 63.8153 0 41.1333 0C18.4512 0 0 18.4551 0 41.1289C0 63.8027 18.4512 82.2579 41.1333 82.2579C51.493 82.2579 60.936 78.38 68.1813 72.0403L76.0378 88.4919C76.0378 88.4919 77.6537 89.808 79.8749 91.9937C82.149 94.1265 85.14 97.0114 88.0076 100.026L95.9874 108.204L99.5366 112L112 99.5379L108.204 95.9891C105.977 93.8034 103.004 90.9008 100.03 87.9983ZM41.1333 70.5068C24.9326 70.5068 11.7524 57.3279 11.7524 41.1289C11.7524 24.93 24.9326 11.7511 41.1333 11.7511C57.3339 11.7511 70.5142 24.93 70.5142 41.1289C70.5142 57.3279 57.3339 70.5068 41.1333 70.5068Z" fill="#C9C9C9"/>
</svg>
