<svg width="29" height="29" viewBox="0 0 29 29" fill="none" xmlns="http://www.w3.org/2000/svg">
<path d="M26.5581 27.4419C26.8021 27.686 27.1979 27.686 27.4419 27.4419C27.686 27.1979 27.686 26.8021 27.4419 26.5581L21.8402 20.9563C22.7289 19.9675 23.4442 18.8337 23.9542 17.6025C24.544 16.1786 24.8475 14.6525 24.8475 13.1113C24.8475 11.57 24.544 10.0439 23.9542 8.61999C23.3644 7.19608 22.4999 5.90229 21.4101 4.81247C20.3203 3.72266 19.0265 2.85817 17.6025 2.26837C16.1786 1.67857 14.6525 1.375 13.1113 1.375C11.57 1.375 10.0439 1.67857 8.61999 2.26837C7.19608 2.85817 5.90229 3.72266 4.81247 4.81247C2.6115 7.01345 1.375 9.99862 1.375 13.1113C1.375 16.2239 2.6115 19.2091 4.81247 21.4101C7.01345 23.611 9.99862 24.8475 13.1113 24.8475C16.0149 24.8475 18.8077 23.7715 20.9564 21.8402L26.5581 27.4419Z" stroke="#C9C9C9" stroke-width="1.25" stroke-linecap="round" stroke-linejoin="round"/>
</svg>
